<?xml version="1.0" encoding="UTF-8"?><svg id="_レイヤー_1" xmlns="http://www.w3.org/2000/svg" width="150.37" height="156.85" viewBox="0 0 150.37 156.85"><path d="M150.08,126.91l-3.94.03c-.13,0-.23-.1-.23-.23l-.03-3.94c0-.13-.11-.23-.23-.23l-8.34.05c-.13,0-.23-.1-.23-.23l-.03-3.94c0-.13-.11-.23-.23-.23l-12.74.08c-.13,0-.23-.1-.23-.23l-.03-3.93c0-.13-.11-.23-.23-.23l-12.74.08c-.13,0-.23.11-.23.23l.03,3.93c0,.13-.1.23-.23.23l-8.34.05c-.13,0-.23.11-.23.23l.03,3.94c0,.13-.1.23-.23.23l-8.34.05c-.13,0-.23.11-.23.23l.03,3.94c0,.13-.1.23-.23.23l-3.93.03c-.13,0-.23-.1-.23-.23l-.03-3.94c0-.13-.11-.23-.23-.23l-3.94.03c-.13,0-.23-.1-.23-.23l-.03-3.94c0-.13-.11-.23-.23-.23l-3.93.03c-.13,0-.23.11-.23.23l.05,8.34c0,.13.11.23.23.23l3.93-.03c.13,0,.23.1.23.23l.05,8.34c0,.13-.1.23-.23.23l-3.93.03c-.13,0-.23.11-.23.23l.05,8.34c0,.13.11.23.23.23l3.93-.03c.13,0,.23-.11.23-.23l-.03-3.93c0-.13.1-.23.23-.23l3.94-.03c.13,0,.23-.11.23-.23l-.03-3.94c0-.13.1-.23.23-.23l3.93-.03c.13,0,.23.1.23.23l.03,3.94c0,.13.11.23.23.23l8.34-.05c.13,0,.23.1.23.23l.03,3.93c0,.13.11.23.23.23l12.74-.08c.13,0,.23.1.23.23l.03,3.94c0,.13.11.23.23.23l8.34-.05c.13,0,.23-.11.23-.23l-.03-3.94c0-.13.1-.23.23-.23l12.74-.08c.13,0,.23-.11.23-.23l-.03-3.93c0-.13.1-.23.23-.23l8.34-.05c.13,0,.23-.11.23-.23l-.03-3.94c0-.13.1-.23.23-.23l3.94-.03c.13,0,.23-.11.23-.23l-.05-8.34c0-.13-.11-.23-.23-.23ZM135.45,131.64c0,.13-.1.23-.23.23h-2.11c-.13.01-.23-.09-.23-.22v-2.11c-.01-.13.09-.23.22-.23h2.11c.13-.01.23.09.23.22v2.11ZM142.63,135.64c0,.13-.1.23-.23.23h-2.11c-.11.01-.34.02-.44.02h-2.11c-.13.01-.23-.09-.23-.22v-1.46c-.01-.13.09-.23.22-.23h2.11c.11-.01.34-.02.44-.02h2.11c.13-.01.23.09.23.22v1.46ZM145.37,131.58c0,.13-.1.23-.23.23h-2.11c-.13.01-.23-.09-.23-.22v-2.11c-.01-.13.09-.23.22-.23h2.11c.13-.01.23.09.23.22v2.11Z" fill="#777780"/><rect y="88.53" width="4.29" height="4.29" rx=".35" ry=".35" fill="#777780"/><rect x="4.29" y="102.32" width="4.29" height="4.29" rx=".35" ry=".35" fill="#777780"/><path d="M105.02,84.59v3.6c0,.19-.15.35-.35.35h-10.21c-.19,0-.35.15-.35.35v4.52c0,.19.15.35.35.35h5.92c.19,0,.35.15.35.35v7.89c0,.19-.15.35-.35.35h-3.6c-.19,0-.35-.15-.35-.35v-3.6c0-.19-.15-.35-.35-.35h-6.54c-.19,0-.35.15-.35.35v4.21c0,.19-.15.35-.35.35h-4.21c-.19,0-.35.15-.35.35v4.21c0,.19-.15.35-.35.35h-9.11c-.19,0-.35.15-.35.35v4.21c0,.19.15.35.35.35h4.21c.19,0,.35.15.35.35v4.21c0,.19.15.35.35.35h4.21c.19,0,.35.15.35.35v9.11c0,.19-.15.35-.35.35h-4.21c-.19,0-.35-.15-.35-.35v-4.21c0-.19-.15-.35-.35-.35h-9.11c-.19,0-.35.15-.35.35v33.62c0,.19-.15.35-.35.35h-4.21c-.19,0-.35-.15-.35-.35v-9.11c0-.19-.15-.35-.35-.35h-4.21c-.19,0-.35-.15-.35-.35v-4.21c0-.19-.15-.35-.35-.35h-9.11c-.19,0-.35.15-.35.35v4.21c0,.19-.15.35-.35.35h-4.21c-.19,0-.35.15-.35.35v9.11c0,.19-.15.35-.35.35h-4.21c-.19,0-.35-.15-.35-.35v-33.62c0-.19-.15-.35-.35-.35h-9.11c-.19,0-.35.15-.35.35v4.21c0,.19-.15.35-.35.35h-4.21c-.19,0-.35-.15-.35-.35v-9.11c0-.19.15-.35.35-.35h4.21c.19,0,.35-.15.35-.35v-4.21c0-.19.15-.35.35-.35h4.21c.19,0,.35-.15.35-.35v-4.21c0-.19-.15-.35-.35-.35h-9.11c-.19,0-.35-.15-.35-.35v-4.21c0-.19-.15-.35-.35-.35h-4.21c-.19,0-.35-.15-.35-.35v-4.21c0-.19-.15-.35-.35-.35h-7.03c-.19,0-.35.15-.35.35v3.6c0,.19-.15.35-.35.35h-3.6c-.19,0-.35-.15-.35-.35v-7.89c0-.19.15-.35.35-.35h6.42c.19,0,.35-.15.35-.35v-4.52c0-.19-.15-.35-.35-.35H4.64c-.19,0-.35-.15-.35-.35v-3.6c0-.19.15-.35.35-.35h10.7c.19,0,.35-.15.35-.35v-14.93c0-.19.15-.35.35-.35h4.21c.19,0,.35-.15.35-.35v-4.21c0-.19.15-.35.35-.35h4.21c.19,0,.35-.15.35-.35v-9.11c0-.19.15-.35.35-.35h4.21c.19,0,.35-.15.35-.35v-4.21c0-.19.15-.35.35-.35h4.21c.19,0,.35.15.35.35v4.21c0,.19.15.35.35.35h4.21c.19,0,.35.15.35.35v4.21c0,.19.15.35.35.35h28.72c.19,0,.35-.15.35-.35v-4.21c0-.19.15-.35.35-.35h4.21c.19,0,.35-.15.35-.35v-4.21c0-.19.15-.35.35-.35h4.21c.19,0,.35.15.35.35v4.21c0,.19.15.35.35.35h4.21c.19,0,.35.15.35.35v9.11c0,.19.15.35.35.35h4.21c.19,0,.35.15.35.35v4.21c0,.19.15.35.35.35h4.21c.19,0,.35.15.35.35v14.93c0,.19.15.35.35.35h10.21c.19,0,.35.15.35.35Z" fill="#777780"/><rect x="105.02" y="88.53" width="4.29" height="4.29" rx=".35" ry=".35" fill="#777780"/><rect x="100.73" y="102.32" width="4.29" height="4.29" rx=".35" ry=".35" fill="#777780"/><path d="M105.19,6.97v-1.2s-.03-.07-.07-.07h-1.2s-.07-.03-.07-.07v-1.2s-.03-.07-.07-.07h-3.87s-.07.03-.07.07v1.2s-.03.07-.07.07h-1.2s-.07.03-.07.07v1.2s-.03.07-.07.07h-1.2s-.07-.03-.07-.07v-1.2s-.03-.07-.07-.07h-1.2s-.07-.03-.07-.07v-1.2s-.03-.07-.07-.07h-3.87s-.07.03-.07.07v1.2s-.03.07-.07.07h-1.2s-.07.03-.07.07v1.2s-.03.07-.07.07h-1.2s-.07.03-.07.07v3.87s.03.07.07.07h1.2s.07.03.07.07v1.2s.03.07.07.07h1.2s.07.03.07.07v1.2s.03.07.07.07h1.2s.07.03.07.07v1.2s.03.07.07.07h1.2s.07.03.07.07v1.2s.03.07.07.07h1.2s.07.03.07.07v1.2s.03.07.07.07h1.2s.07.03.07.07v1.2s.03.07.07.07h1.2s.07-.03.07-.07v-1.2s.03-.07.07-.07h1.2s.07-.03.07-.07v-1.2s.03-.07.07-.07h1.2s.07-.03.07-.07v-1.2s.03-.07.07-.07h1.2s.07-.03.07-.07v-1.2s.03-.07.07-.07h1.2s.07-.03.07-.07v-1.2s.03-.07.07-.07h1.2s.07-.03.07-.07v-1.2s.03-.07.07-.07h1.2s.07-.03.07-.07v-3.87s-.03-.07-.07-.07h-1.2s-.07-.03-.07-.07Z" fill="#777780"/><path d="M33.07,0h-6.01c-.28,0-.49.16-.49.39v1.74c0,.11-.12.19-.29.19h-2.36c-.28,0-.49.16-.49.39v4.63c0,.11-.12.19-.29.19h-2.36c-.28,0-.49.16-.49.39v2.03c0,.22.2.39.49.39h2.36c.17,0,.29.08.29.19v8.13c0,.22.2.39.49.39h2.88c.28,0,.49-.16.49-.39v-8.13c0-.11.12-.19.29-.19h5.5c.28,0,.49-.16.49-.39v-2.03c0-.22-.2-.39-.49-.39h-5.5c-.17,0-.29-.08-.29-.19V3c0-.11.12-.19.29-.19h5.5c.28,0,.49-.16.49-.39V.39c0-.22-.2-.39-.49-.39Z" fill="#777780"/><path d="M66.15,5.71h-2.59c-.17,0-.29-.08-.29-.18v-1.92c0-.26-.24-.45-.56-.45h-6.61c-.32,0-.56.19-.56.45v1.92c0,.11-.12.18-.29.18h-2.59c-.32,0-.56.19-.56.45v2.23c0,.26.24.45.56.45h2.59c.17,0,.29.08.29.18v1.92c0,.26.24.45.56.45h2.59c.17,0,.29.08.29.18v1.99c0,.26.24.45.56.45h2.59c.17,0,.29.08.29.18v1.38c0,.11-.12.18-.29.18h-5.33c-.17,0-.29-.08-.29-.18v-1.92c0-.26-.24-.45-.56-.45h-3.3c-.32,0-.56.19-.56.45v2.38c0,.26.24.45.56.45h2.59c.17,0,.29.08.29.18v1.92c0,.26.24.45.56.45h6.61c.32,0,.56-.19.56-.45v-1.92c0-.11.12-.18.29-.18h2.59c.32,0,.56-.19.56-.45v-2.23c0-.26-.24-.45-.56-.45h-2.59c-.17,0-.29-.08-.29-.18v-1.92c0-.26-.24-.45-.56-.45h-2.59c-.17,0-.29-.08-.29-.18v-1.92c0-.26-.24-.45-.56-.45h-2.59c-.17,0-.29-.08-.29-.18v-1.45c0-.11.12-.18.29-.18h5.33c.17,0,.29.08.29.18v1.92c0,.29.41.45.7.45h3.16c.32,0,.56-.19.56-.45v-2.38c0-.26-.24-.45-.56-.45Z" fill="#777780"/><path d="M83.79,6.95h-2.36c-.17,0-.29-.08-.29-.19v-1.74c0-.22-.2-.39-.49-.39h-5.5c-.17,0-.29-.08-.29-.19V.39c0-.22-.21-.39-.49-.39h-2.88c-.28,0-.49.16-.49.39v18.25c0,.22.21.39.49.39h2.88c.28,0,.49-.16.49-.39V7.63c0-.11.12-.19.29-.19h4.98c.17,0,.29.08.29.19v11.01c0,.22.21.39.49.39h2.88c.28,0,.49-.16.49-.39V7.34c0-.22-.2-.39-.49-.39Z" fill="#777780"/><path d="M47.65,16.09h-2.36c-.13,0-.22-.05-.22-.12V7.06c0-.26-.23-.45-.55-.45h-6.01c-.32,0-.55.19-.55.45v1.89c0,.26.23.45.55.45h2.64c.13,0,.22.05.22.12v6.45c0,.07-.1.12-.22.12h-2.64c-.32,0-.55.19-.55.45v2.03c0,.26.23.45.55.45h9.15c.32,0,.55-.19.55-.45v-2.03c0-.26-.23-.45-.55-.45Z" fill="#777780"/><path d="M41.64,3.22h2.88c.32,0,.55-.19.55-.45V.45c0-.26-.23-.45-.55-.45h-2.88c-.32,0-.55.19-.55.45v2.32c0,.26.23.45.55.45Z" fill="#777780"/></svg>